# xmcd
#
# Track frame offsets: 
#        12365
#        31299
#        46390
#        68230
#        87139
#        115528
#        139228
#        154673
#        181915
#
# Disc length: 2898 seconds
#
# Revision: 1
# Processed by: cddbd v1.5.2PL0 Copyright (c) Steve Scherf et al.
# Submitted via: ExactAudioCopy v0.99pb5
#
DISCID=760aae09
DTITLE=King Mo - Sweet Devil
DYEAR=2010
DGENRE=Blues
TTITLE0=No Use Denying
TTITLE1=Suits Me Right
TTITLE2=Sweet Devil
TTITLE3=Soundcheck
TTITLE4=Big Legged Woman
TTITLE5=Make It Ritht
TTITLE6=The Milkman
TTITLE7=Glad Rags
TTITLE8=Ain't Nobody's Business If I Do
EXTD=
EXTT0=
EXTT1=
EXTT2=
EXTT3=
EXTT4=
EXTT5=
EXTT6=
EXTT7=
EXTT8=
PLAYORDER=
